<svg xmlns="http://www.w3.org/2000/svg" width="225.283" height="43.622" viewBox="0 0 225.283 43.622">
    <defs>
        <style>
            .cls-1{fill:#d70043}.cls-2{fill:#5e5971}.cls-3{fill:#ea0b4b}
        </style>
    </defs>
    <g id="Group_996" data-name="Group 996" transform="translate(-1839.012 -1170.337)">
        <path id="Associate" d="M3.429 1.548a3.185 3.185 0 0 1-1.616-.4A2.649 2.649 0 0 1 .749.009 3.842 3.842 0 0 1 .378-1.73a3.813 3.813 0 0 1 .371-1.733A2.654 2.654 0 0 1 1.813-4.6 3.184 3.184 0 0 1 3.429-5a3.5 3.5 0 0 1 1.123.177 2.917 2.917 0 0 1 .933.512.519.519 0 0 1 .163.19.589.589 0 0 1 .045.244.519.519 0 0 1-.109.335.326.326 0 0 1-.263.136.67.67 0 0 1-.371-.127 2.685 2.685 0 0 0-.724-.4 2.309 2.309 0 0 0-.742-.113 1.74 1.74 0 0 0-1.426.589 2.666 2.666 0 0 0-.485 1.727A2.683 2.683 0 0 0 2.058.009 1.74 1.74 0 0 0 3.484.6 2.131 2.131 0 0 0 4.2.48a3.453 3.453 0 0 0 .747-.4 1.267 1.267 0 0 1 .181-.091.507.507 0 0 1 .19-.036.326.326 0 0 1 .266.137.519.519 0 0 1 .109.335.6.6 0 0 1-.045.24.507.507 0 0 1-.164.195 2.917 2.917 0 0 1-.933.512 3.5 3.5 0 0 1-1.122.176zm6.917 0a3.153 3.153 0 0 1-1.616-.4A2.665 2.665 0 0 1 7.676.009 3.842 3.842 0 0 1 7.3-1.73a3.852 3.852 0 0 1 .367-1.734A2.634 2.634 0 0 1 8.726-4.6a3.178 3.178 0 0 1 1.62-.4 3.153 3.153 0 0 1 1.616.4 2.642 2.642 0 0 1 1.05 1.136 3.852 3.852 0 0 1 .368 1.734 3.842 3.842 0 0 1-.372 1.739 2.665 2.665 0 0 1-1.054 1.141 3.135 3.135 0 0 1-1.608.398zm0-.933a1.67 1.67 0 0 0 1.372-.606 2.693 2.693 0 0 0 .493-1.738 2.673 2.673 0 0 0-.493-1.734 1.676 1.676 0 0 0-1.372-.6 1.686 1.686 0 0 0-1.381.6 2.673 2.673 0 0 0-.493 1.733A2.693 2.693 0 0 0 8.966.009a1.68 1.68 0 0 0 1.38.606zM20.3-4.962a.527.527 0 0 1 .4.158.589.589 0 0 1 .149.421V.932a.594.594 0 0 1-.154.426.523.523 0 0 1-.4.163.518.518 0 0 1-.444-.208l-3.3-4.3V.932a.617.617 0 0 1-.145.426.568.568 0 0 1-.8 0 .617.617 0 0 1-.145-.426v-5.314a.578.578 0 0 1 .154-.421.542.542 0 0 1 .407-.158.509.509 0 0 1 .435.208l3.3 4.283v-3.912A.589.589 0 0 1 19.9-4.8a.516.516 0 0 1 .4-.162zm7.669 0a.527.527 0 0 1 .4.158.589.589 0 0 1 .149.421V.932a.594.594 0 0 1-.154.426.523.523 0 0 1-.4.163.518.518 0 0 1-.444-.208l-3.3-4.3V.932a.617.617 0 0 1-.145.426.568.568 0 0 1-.8 0 .617.617 0 0 1-.145-.426v-5.314a.578.578 0 0 1 .154-.421.542.542 0 0 1 .407-.158.509.509 0 0 1 .435.208l3.3 4.283v-3.912a.589.589 0 0 1 .149-.421.516.516 0 0 1 .39-.159zm3.4 6.428a.567.567 0 0 1-.412-.145.541.541 0 0 1-.157-.407v-5.278a.541.541 0 0 1 .149-.407.567.567 0 0 1 .412-.145h3.268a.63.63 0 0 1 .407.118.407.407 0 0 1 .145.335.431.431 0 0 1-.145.349.614.614 0 0 1-.407.122H31.94v1.756h2.508a.63.63 0 0 1 .407.118.417.417 0 0 1 .145.343.407.407 0 0 1-.145.335.63.63 0 0 1-.407.118H31.94V.543h2.689a.614.614 0 0 1 .407.122.431.431 0 0 1 .145.349.407.407 0 0 1-.145.335.63.63 0 0 1-.407.118zm8.511.081a3.184 3.184 0 0 1-1.616-.4A2.649 2.649 0 0 1 37.191.009a3.841 3.841 0 0 1-.371-1.739 3.813 3.813 0 0 1 .371-1.734A2.654 2.654 0 0 1 38.255-4.6a3.184 3.184 0 0 1 1.616-.4 3.5 3.5 0 0 1 1.123.177 2.917 2.917 0 0 1 .933.512.519.519 0 0 1 .163.19.589.589 0 0 1 .045.244.519.519 0 0 1-.109.335.326.326 0 0 1-.263.136.67.67 0 0 1-.371-.127 2.685 2.685 0 0 0-.724-.4 2.309 2.309 0 0 0-.742-.113 1.74 1.74 0 0 0-1.426.589 2.666 2.666 0 0 0-.484 1.729A2.683 2.683 0 0 0 38.5.009 1.74 1.74 0 0 0 39.926.6a2.131 2.131 0 0 0 .72-.118 3.453 3.453 0 0 0 .747-.4 1.267 1.267 0 0 1 .181-.091.507.507 0 0 1 .19-.036.326.326 0 0 1 .263.136.519.519 0 0 1 .109.335.6.6 0 0 1-.045.24.507.507 0 0 1-.163.195 2.917 2.917 0 0 1-.933.512 3.5 3.5 0 0 1-1.124.175zm6.193-.036a.581.581 0 0 1-.43-.158.569.569 0 0 1-.158-.421v-4.889h-1.657q-.543 0-.543-.48t.543-.48h4.464q.543 0 .543.48t-.543.48h-1.648V.932a.569.569 0 0 1-.158.421.569.569 0 0 1-.422.159zm9.815 0a.581.581 0 0 1-.43-.158.569.569 0 0 1-.168-.421v-4.889h-1.647q-.543 0-.543-.48t.543-.48h4.464q.543 0 .543.48t-.543.48h-1.649V.932a.569.569 0 0 1-.158.421.569.569 0 0 1-.421.159zm6.827.036a3.153 3.153 0 0 1-1.616-.4A2.665 2.665 0 0 1 60.035.009a3.841 3.841 0 0 1-.371-1.738 3.852 3.852 0 0 1 .367-1.734A2.634 2.634 0 0 1 61.085-4.6a3.178 3.178 0 0 1 1.621-.4 3.153 3.153 0 0 1 1.616.4 2.642 2.642 0 0 1 1.05 1.136 3.853 3.853 0 0 1 .367 1.734 3.841 3.841 0 0 1-.372 1.739 2.665 2.665 0 0 1-1.054 1.141 3.135 3.135 0 0 1-1.607.398zm0-.933a1.67 1.67 0 0 0 1.362-.605 2.693 2.693 0 0 0 .493-1.738 2.673 2.673 0 0 0-.493-1.734 1.676 1.676 0 0 0-1.372-.6 1.686 1.686 0 0 0-1.381.6 2.673 2.673 0 0 0-.493 1.734 2.693 2.693 0 0 0 .494 1.738 1.68 1.68 0 0 0 1.381.606z" class="cls-1" transform="translate(1902.485 1212.411)"/>
        <path id="Associate-2" d="M5.521-4.962a.554.554 0 0 1 .416.158.578.578 0 0 1 .154.421V.932a.585.585 0 0 1-.158.426.608.608 0 0 1-.828 0A.594.594 0 0 1 4.95.932V-1.3H1.682V.932a.585.585 0 0 1-.158.426.56.56 0 0 1-.421.163.549.549 0 0 1-.413-.163.585.585 0 0 1-.158-.426v-5.314A.578.578 0 0 1 .686-4.8a.554.554 0 0 1 .414-.162.569.569 0 0 1 .421.158.569.569 0 0 1 .158.421v2.137H4.95v-2.136A.578.578 0 0 1 5.1-4.8a.554.554 0 0 1 .421-.162zM16.422.769a.558.558 0 0 1 .054.231.45.45 0 0 1-.167.353.571.571 0 0 1-.385.145.5.5 0 0 1-.471-.317L14.91-.027h-3.187l-.543 1.213a.513.513 0 0 1-.2.24.53.53 0 0 1-.28.074.577.577 0 0 1-.38-.145.445.445 0 0 1-.173-.355.558.558 0 0 1 .053-.231L12.7-4.6a.584.584 0 0 1 .249-.276.713.713 0 0 1 .358-.1.713.713 0 0 1 .358.1.584.584 0 0 1 .249.276zm-1.91-1.7l-1.2-2.689-1.2 2.689zM21.1 1.521a.569.569 0 0 1-.421-.158.581.581 0 0 1-.158-.43v-5.3a.541.541 0 0 1 .149-.407.567.567 0 0 1 .412-.145h2.227a2.3 2.3 0 0 1 1.593.512 1.828 1.828 0 0 1 .57 1.435 1.842 1.842 0 0 1-.57 1.44 2.29 2.29 0 0 1-1.593.516h-1.618V.932a.581.581 0 0 1-.158.43.581.581 0 0 1-.433.159zm2.064-3.431q1.2 0 1.2-1.05t-1.2-1.05h-1.473v2.1zm7.08 3.431a.569.569 0 0 1-.421-.158.581.581 0 0 1-.158-.43v-5.3a.541.541 0 0 1 .149-.407.567.567 0 0 1 .412-.145h2.227a2.3 2.3 0 0 1 1.597.519 1.828 1.828 0 0 1 .57 1.435 1.842 1.842 0 0 1-.57 1.44 2.29 2.29 0 0 1-1.594.516h-1.62V.932a.581.581 0 0 1-.158.43.581.581 0 0 1-.431.159zm2.064-3.431q1.2 0 1.2-1.05t-1.2-1.05h-1.472v2.1zm7.08 3.431a.56.56 0 0 1-.421-.163.585.585 0 0 1-.158-.426v-5.314a.569.569 0 0 1 .158-.421.569.569 0 0 1 .421-.158.581.581 0 0 1 .43.158.569.569 0 0 1 .158.421V.932a.585.585 0 0 1-.158.426.572.572 0 0 1-.426.163zm9.972-6.483a.527.527 0 0 1 .4.158.589.589 0 0 1 .149.421V.932a.594.594 0 0 1-.154.426.523.523 0 0 1-.4.163.518.518 0 0 1-.444-.208l-3.3-4.3V.932a.617.617 0 0 1-.145.426.568.568 0 0 1-.8 0 .617.617 0 0 1-.145-.426v-5.314a.578.578 0 0 1 .154-.421.542.542 0 0 1 .407-.158.509.509 0 0 1 .435.208l3.3 4.283v-3.912a.589.589 0 0 1 .149-.421.516.516 0 0 1 .394-.159zm5.659 6.428a.567.567 0 0 1-.412-.145.541.541 0 0 1-.149-.407v-5.278a.541.541 0 0 1 .149-.407.567.567 0 0 1 .412-.145h3.268a.63.63 0 0 1 .407.118.407.407 0 0 1 .145.335.431.431 0 0 1-.145.349.614.614 0 0 1-.407.122H55.6v1.756h2.508a.63.63 0 0 1 .407.118.417.417 0 0 1 .145.344.407.407 0 0 1-.145.335.63.63 0 0 1-.407.118H55.6V.543h2.689a.614.614 0 0 1 .407.122.431.431 0 0 1 .145.349.407.407 0 0 1-.145.335.63.63 0 0 1-.407.118zm10.059.081a4.572 4.572 0 0 1-1.317-.186 2.9 2.9 0 0 1-1.01-.5.509.509 0 0 1-.208-.435.51.51 0 0 1 .113-.33.335.335 0 0 1 .267-.14.736.736 0 0 1 .371.127 2.715 2.715 0 0 0 .815.407 3.29 3.29 0 0 0 .942.127 1.854 1.854 0 0 0 1.014-.232.756.756 0 0 0 .353-.675.58.58 0 0 0-.33-.53 4.376 4.376 0 0 0-1.1-.358 6.516 6.516 0 0 1-1.295-.4 1.828 1.828 0 0 1-.751-.579 1.5 1.5 0 0 1-.254-.9 1.687 1.687 0 0 1 .317-1 2.088 2.088 0 0 1 .883-.693A3.127 3.127 0 0 1 65.159-5a3.158 3.158 0 0 1 2.11.688.68.68 0 0 1 .167.195.514.514 0 0 1 .05.24.51.51 0 0 1-.113.33.335.335 0 0 1-.267.14.5.5 0 0 1-.167-.027 1.343 1.343 0 0 1-.2-.1 3.059 3.059 0 0 0-.72-.4 2.44 2.44 0 0 0-.856-.131 1.678 1.678 0 0 0-.973.249.8.8 0 0 0-.358.693.636.636 0 0 0 .317.57 3.714 3.714 0 0 0 1.077.371 7.25 7.25 0 0 1 1.308.4 1.94 1.94 0 0 1 .77.566 1.36 1.36 0 0 1 .267.86 1.643 1.643 0 0 1-.312.991 2.036 2.036 0 0 1-.878.67 3.3 3.3 0 0 1-1.303.243zm8.945 0a4.572 4.572 0 0 1-1.317-.186A2.9 2.9 0 0 1 71.7.86a.509.509 0 0 1-.208-.435.511.511 0 0 1 .108-.33.335.335 0 0 1 .267-.14.736.736 0 0 1 .371.127 2.715 2.715 0 0 0 .815.407A3.29 3.29 0 0 0 74 .615a1.854 1.854 0 0 0 1.01-.23.756.756 0 0 0 .353-.675.58.58 0 0 0-.33-.53 4.376 4.376 0 0 0-1.1-.358 6.516 6.516 0 0 1-1.295-.4 1.828 1.828 0 0 1-.751-.579 1.5 1.5 0 0 1-.254-.9 1.687 1.687 0 0 1 .317-1 2.088 2.088 0 0 1 .883-.693A3.127 3.127 0 0 1 74.1-5a3.158 3.158 0 0 1 2.11.688.68.68 0 0 1 .168.195.514.514 0 0 1 .05.24.51.51 0 0 1-.113.33.335.335 0 0 1-.267.14.5.5 0 0 1-.167-.027 1.342 1.342 0 0 1-.2-.1 3.059 3.059 0 0 0-.72-.4 2.44 2.44 0 0 0-.856-.131 1.678 1.678 0 0 0-.973.249.8.8 0 0 0-.358.693.636.636 0 0 0 .317.57 3.714 3.714 0 0 0 1.077.371 7.249 7.249 0 0 1 1.308.4 1.94 1.94 0 0 1 .77.566 1.36 1.36 0 0 1 .267.86 1.643 1.643 0 0 1-.313.994 2.036 2.036 0 0 1-.878.67 3.3 3.3 0 0 1-1.299.24z" class="cls-1" data-name="Associate" transform="translate(1986.603 1212.411)"/>
        <path id="Path_118" d="M72.468 32.484a1.687 1.687 0 0 1-1.684-1.669V15.481a8.575 8.575 0 1 1 8.576 8.576h-.026a8.561 8.561 0 0 1-5.17-1.75v8.507a1.671 1.671 0 0 1-1.669 1.669zM79.356 10.3a5.159 5.159 0 0 0-3.672 1.52 5.218 5.218 0 0 0-1.52 3.676v.041a5.21 5.21 0 0 0 5.2 5.156h.028A5.2 5.2 0 0 0 79.36 10.3zm61.391 13.692a1.7 1.7 0 0 1-1.19-.508 1.68 1.68 0 0 1-.48-1.2v-8.6a3.486 3.486 0 1 0-6.973 0v8.6a1.68 1.68 0 0 1-.48 1.2 1.692 1.692 0 0 1-2.9-1.2v-8.6a3.467 3.467 0 1 0-6.933 0v8.6a1.689 1.689 0 1 1-3.378 0v-8.6a6.864 6.864 0 0 1 6.851-6.826h.039a6.761 6.761 0 0 1 5.132 2.356 6.762 6.762 0 0 1 5.132-2.356h.039a6.864 6.864 0 0 1 6.851 6.826c0 .069 0 .094-.041.134a.285.285 0 0 1 .041.176v8.292a1.727 1.727 0 0 1-1.71 1.703zm-78.962-.007a6.92 6.92 0 0 1-6.912-6.912V8.481a1.689 1.689 0 1 1 3.378 0v8.509a3.534 3.534 0 0 0 7.068 0V8.481a1.7 1.7 0 0 1 .508-1.19A1.676 1.676 0 0 1 67 6.812h.026A1.671 1.671 0 0 1 68.7 8.481v8.589a6.92 6.92 0 0 1-6.915 6.912zm52.829-.06a1.68 1.68 0 0 1-1.2-.5 1.7 1.7 0 0 1-.5-1.213V8.481a1.69 1.69 0 1 1 3.379 0v13.732a1.679 1.679 0 0 1-.48 1.2 1.7 1.7 0 0 1-1.19.508zm-19.117 0a1.7 1.7 0 0 1-1.697-1.712V1.831a1.743 1.743 0 0 1 1.739-1.71h6.6a6.953 6.953 0 0 1 6.661 6.825 7.125 7.125 0 0 1-1.507 4.241 6.919 6.919 0 0 1 3.689 6.031 6.818 6.818 0 0 1-6.382 6.7h-9.1zm1.713-10.11V20.5h7.136a3.316 3.316 0 0 0 3.244-3.3 3.559 3.559 0 0 0-3.42-3.393h-6.96zm0-10.271v6.865h4.664a3.549 3.549 0 0 0 3.534-3.486 3.478 3.478 0 0 0-1.073-2.429 3.443 3.443 0 0 0-2.38-.95H97.21zM44.344 23.922a8.566 8.566 0 1 1 .014 0zm0-13.8a5.22 5.22 0 1 0 .014 0zm109.095 13.793c-.1 0-.2 0-.293-.006s-.172 0-.258 0a8.341 8.341 0 0 1-5.849-2.378 8.43 8.43 0 0 1-2.535-6.04 8.644 8.644 0 0 1 2.51-6.137 8.533 8.533 0 0 1 6.076-2.519h.07a8.395 8.395 0 0 1 8.388 8.656v6.7a1.649 1.649 0 0 1-1.648 1.719h-.063a1.8 1.8 0 0 1-1.643-1.71 7.465 7.465 0 0 1-4.755 1.715zm-.293-13.724a5.366 5.366 0 0 0-5.291 5.3 5.172 5.172 0 0 0 5.172 5.077h.2a4.965 4.965 0 0 0 4.963-5.076 5.129 5.129 0 0 0-1.42-3.7 5.2 5.2 0 0 0-3.624-1.602zM27.295 23.9a1.689 1.689 0 0 1-1.69-1.689V15.36a8.591 8.591 0 0 1 8.576-8.548h.026a1.676 1.676 0 0 1 1.175.48 1.691 1.691 0 0 1-1.2 2.9h-.018A5.147 5.147 0 0 0 30.51 11.7a5.209 5.209 0 0 0-1.525 3.662v6.853a1.689 1.689 0 0 1-1.69 1.689zm-15.505-.072a11.781 11.781 0 0 1-4.561-.915 12.043 12.043 0 0 1-3.755-2.557A12.246 12.246 0 0 1 .916 16.6 12 12 0 0 1 0 11.995a11.557 11.557 0 0 1 .943-4.631A12.013 12.013 0 0 1 3.5 3.607 12.277 12.277 0 0 1 7.256 1.05a11.844 11.844 0 0 1 4.577-.915c.14-.005.283-.008.423-.008A11.533 11.533 0 0 1 21.7 5.048a1.65 1.65 0 0 1-.618 2.352 1.9 1.9 0 0 1-.83.189 1.921 1.921 0 0 1-1.566-.809 8.448 8.448 0 0 0-6.68-3.246h-.186a8.449 8.449 0 0 0-1.091 16.82 8.45 8.45 0 0 0 9.41-6.643h-7.4a1.726 1.726 0 0 1-1.709-1.709 1.693 1.693 0 0 1 1.7-1.71h9.316a1.668 1.668 0 0 1 1.669 1.7 11.778 11.778 0 0 1-.915 4.6 12.035 12.035 0 0 1-2.557 3.756 12.27 12.27 0 0 1-3.756 2.557 12.091 12.091 0 0 1-4.627.915h-.07zM114.631 3.392a1.751 1.751 0 0 1-1.2-.47 1.695 1.695 0 1 1 2.4-2.4 1.717 1.717 0 0 1 0 2.4 1.755 1.755 0 0 1-1.2.47z" class="cls-2" transform="translate(1902.744 1179.76)"/>
        <path id="Path_119" d="M32.155 43.347a8.443 8.443 0 0 1-5.2-1.852 14.345 14.345 0 0 1-3.715-4.472 29.808 29.808 0 0 1-3.04-15.909 1.823 1.823 0 1 1 3.635.243 26.148 26.148 0 0 0 2.6 13.926c2.018 3.653 4.243 4.42 5.754 4.42a4.987 4.987 0 0 0 1.34-.19A11.736 11.736 0 0 0 39 35.4a1.823 1.823 0 0 1 2.8 2.333 15.194 15.194 0 0 1-7.289 5.284 8.781 8.781 0 0 1-2.356.33zm1.625-9.805a4.634 4.634 0 0 1-1.66-.306 3.457 3.457 0 0 1-1.961-3.266c-.112-1.987.784-5.174 2.662-9.471a1.822 1.822 0 1 1 3.341 1.453 32.034 32.034 0 0 0-2.237 6.427c-.026.133-.055.26-.082.384-.1.445-.177.794-.052.951a.267.267 0 0 0 .224.087 1.279 1.279 0 0 0 .4-.084 29.66 29.66 0 0 0 7.795-5.347 41.9 41.9 0 0 0 9.334-11.136 9.563 9.563 0 0 0 1.326-4.816 3.723 3.723 0 0 0-1.988-3.011 15.628 15.628 0 0 0-6.755-1.687c-.6-.054-1.219-.081-1.826-.081a20.529 20.529 0 0 0-5.058.633A6.442 6.442 0 0 0 33.7 6.435a1.819 1.819 0 0 1-1.494.78c-.052 0-.1 0-.157-.007a1.825 1.825 0 0 1-1.339-2.862A9.9 9.9 0 0 1 36.226.782 24.083 24.083 0 0 1 42.3 0c.692 0 1.392.03 2.081.09a18.929 18.929 0 0 1 8.378 2.214A7.163 7.163 0 0 1 56.5 8.173a13.022 13.022 0 0 1-1.718 6.746 45.71 45.71 0 0 1-10.189 12.218 32.368 32.368 0 0 1-8.993 6.034 4.626 4.626 0 0 1-1.82.371zm-19.093-4.625a1.809 1.809 0 0 1-1.1-.368l-1.675-1.411A45.514 45.514 0 0 1 1.721 14.92 13.044 13.044 0 0 1 0 8.174a7.166 7.166 0 0 1 3.742-5.865A18.88 18.88 0 0 1 12.121.093c.7-.062 1.4-.093 2.1-.093a23.842 23.842 0 0 1 6.055.782A9.9 9.9 0 0 1 25.8 4.345a1.823 1.823 0 0 1 .306 1.361 1.8 1.8 0 0 1-.752 1.175 1.832 1.832 0 0 1-2.545-.446 6.408 6.408 0 0 0-3.542-2.164 20 20 0 0 0-5.015-.639c-.621 0-1.25.029-1.868.087a15.613 15.613 0 0 0-6.76 1.694 3.707 3.707 0 0 0-1.983 3.011 9.694 9.694 0 0 0 1.325 4.816A41.9 41.9 0 0 0 14.3 24.376l1.591 1.346a1.824 1.824 0 0 1-1.2 3.2zm3.683-13.71a2.536 2.536 0 0 1 1.784-3.085 3.018 3.018 0 0 1 .987-.168 2.953 2.953 0 0 1 2.676 1.718 2.337 2.337 0 0 1 .075 1.535 4.675 4.675 0 0 0-5.521 0zm14.25 0a2.347 2.347 0 0 1 .077-1.536 2.942 2.942 0 0 1 3.659-1.548 2.532 2.532 0 0 1 1.785 3.077 4.675 4.675 0 0 0-5.521 0z" class="cls-3" transform="translate(1839.012 1170.337)"/>
    </g>
</svg>
